<?xml version="1.0" encoding="utf-8"?>
<!-- Generator: Adobe Illustrator 27.8.1, SVG Export Plug-In . SVG Version: 6.00 Build 0)  -->
<svg version="1.1" id="Layer_1" xmlns="http://www.w3.org/2000/svg" xmlns:xlink="http://www.w3.org/1999/xlink" x="0px" y="0px"
	 viewBox="0 0 1039 602.7" style="enable-background:new 0 0 1039 602.7;" xml:space="preserve">
<style type="text/css">
	.st0{opacity:0.15;}
	.st1{fill:none;stroke:#000000;stroke-miterlimit:10;}
</style>
<g id="Layer_2_00000084496247761863189760000010428982270985790643_" class="st0">
	<g id="Layer_1-2">
		<polygon class="st1" points="379.4,448.3 379.4,383.9 327,383.9 334.5,366.9 312,366.9 312,383.9 312,395.2 312,448.3 		"/>
		<polygon class="st1" points="389.6,366.9 389.6,412 426.3,412 421.1,423.9 436.9,423.9 436.9,412 436.9,404.1 436.9,366.9 		"/>
		<polygon class="st1" points="457.1,515.1 457.1,450.7 404.7,450.7 412.1,433.6 389.6,433.6 389.6,450.7 389.6,462 389.6,515.1 		
			"/>
		<polygon class="st1" points="467.2,433.6 467.2,478.8 504,478.8 498.7,490.7 514.5,490.7 514.5,478.8 514.5,470.9 514.5,433.6 		
			"/>
		<polygon class="st1" points="446.9,357.1 446.9,292.7 394.5,292.7 402,275.7 379.4,275.7 379.4,292.7 379.4,304 379.4,357.1 		"/>
		<polygon class="st1" points="457.1,275.7 457.1,320.8 493.8,320.8 488.6,332.8 504.3,332.8 504.3,320.8 504.3,312.9 504.3,275.7 
					"/>
		<polygon class="st1" points="524.5,423.9 524.5,359.5 472.1,359.5 479.6,342.5 457.1,342.5 457.1,359.5 457.1,370.8 457.1,423.9 
					"/>
		<polygon class="st1" points="534.7,342.5 534.7,387.6 571.4,387.6 566.2,399.5 582,399.5 582,387.6 582,379.7 582,342.5 		"/>
		<polygon class="st1" points="158.3,410 158.3,345.6 105.9,345.6 113.3,328.6 90.8,328.6 90.8,345.6 90.8,356.9 90.8,410 		"/>
		<polygon class="st1" points="168.4,328.6 168.4,373.7 205.2,373.7 199.9,385.7 215.7,385.7 215.7,373.7 215.7,365.8 215.7,328.6 
					"/>
		<polygon class="st1" points="235.9,476.8 235.9,412.4 183.5,412.4 191,395.4 168.4,395.4 168.4,412.4 168.4,423.7 168.4,476.8 		
			"/>
		<polygon class="st1" points="246.1,395.4 246.1,440.5 282.8,440.5 277.6,452.5 293.4,452.5 293.4,440.5 293.4,432.6 293.4,395.4 
					"/>
		<polygon class="st1" points="225.7,318.9 225.7,254.4 173.3,254.4 180.8,237.4 158.3,237.4 158.3,254.4 158.3,265.8 158.3,318.9 
					"/>
		<polygon class="st1" points="235.9,237.4 235.9,282.6 272.6,282.6 267.4,294.5 283.2,294.5 283.2,282.6 283.2,274.6 283.2,237.4 
					"/>
		<polygon class="st1" points="303.4,385.7 303.4,321.2 251,321.2 258.4,304.2 235.9,304.2 235.9,321.2 235.9,332.5 235.9,385.7 		
			"/>
		<polygon class="st1" points="313.5,304.2 313.5,349.4 350.2,349.4 345,361.3 360.8,361.3 360.8,349.4 360.8,341.4 360.8,304.2 		
			"/>
		<polygon class="st1" points="289.1,211.3 289.1,146.9 236.7,146.9 244.2,129.9 221.7,129.9 221.7,146.9 221.7,158.2 221.7,211.3 
					"/>
		<polygon class="st1" points="299.3,129.9 299.3,175.1 336,175.1 330.8,187 346.6,187 346.6,175.1 346.6,167.1 346.6,129.9 		"/>
		<polygon class="st1" points="366.8,278.1 366.8,213.7 314.3,213.7 321.8,196.7 299.3,196.7 299.3,213.7 299.3,225 299.3,278.1 		
			"/>
		<polygon class="st1" points="376.9,196.7 376.9,241.9 413.6,241.9 408.4,253.8 424.2,253.8 424.2,241.9 424.2,233.9 424.2,196.7 
					"/>
		<polygon class="st1" points="356.6,120.2 356.6,55.8 304.2,55.8 311.6,38.8 289.1,38.8 289.1,55.8 289.1,67.1 289.1,120.2 		"/>
		<polygon class="st1" points="366.8,38.8 366.8,83.9 403.5,83.9 398.2,95.8 414,95.8 414,83.9 414,76 414,38.8 		"/>
		<polygon class="st1" points="434.2,187 434.2,122.6 381.8,122.6 389.3,105.5 366.8,105.5 366.8,122.6 366.8,133.9 366.8,187 		"/>
		<polygon class="st1" points="444.4,105.5 444.4,150.7 481.1,150.7 475.9,162.6 491.6,162.6 491.6,150.7 491.6,142.8 491.6,105.5 
					"/>
		<polygon class="st1" points="68,173.1 68,108.7 15.6,108.7 23,91.7 0.5,91.7 0.5,108.7 0.5,120 0.5,173.1 		"/>
		<polygon class="st1" points="78.1,91.7 78.1,136.8 114.8,136.8 109.6,148.7 125.4,148.7 125.4,136.8 125.4,128.9 125.4,91.7 		"/>
		<polygon class="st1" points="145.6,239.9 145.6,175.5 93.2,175.5 100.6,158.4 78.1,158.4 78.1,175.5 78.1,186.8 78.1,239.9 		"/>
		<polygon class="st1" points="313.5,537.9 313.5,473.5 261.1,473.5 268.6,456.5 246.1,456.5 246.1,473.5 246.1,484.8 246.1,537.9 
					"/>
		<polygon class="st1" points="155.8,158.4 155.8,203.6 192.5,203.6 187.2,215.5 203,215.5 203,203.6 203,195.7 203,158.4 		"/>
		<polygon class="st1" points="135.4,81.9 135.4,17.5 83,17.5 90.5,0.5 68,0.5 68,17.5 68,28.8 68,81.9 		"/>
		<polygon class="st1" points="145.6,0.5 145.6,45.6 182.3,45.6 177.1,57.6 192.9,57.6 192.9,45.6 192.9,37.7 192.9,0.5 		"/>
		<polygon class="st1" points="213,148.7 213,84.3 160.6,84.3 168.1,67.3 145.6,67.3 145.6,84.3 145.6,95.6 145.6,148.7 		"/>
		<polygon class="st1" points="223.2,67.3 223.2,112.4 259.9,112.4 254.7,124.4 270.5,124.4 270.5,112.4 270.5,104.5 270.5,67.3 		
			"/>
		<polygon class="st1" points="836,535.4 836,471 783.6,471 791.1,454 768.5,454 768.5,471 768.5,482.3 768.5,535.4 		"/>
		<polygon class="st1" points="846.2,454 846.2,499.1 882.9,499.1 877.7,511.1 893.5,511.1 893.5,499.1 893.5,491.2 893.5,454 		"/>
		<polygon class="st1" points="913.6,602.2 913.6,537.8 861.2,537.8 868.7,520.8 846.2,520.8 846.2,537.8 846.2,549.1 846.2,602.2 
					"/>
		<polygon class="st1" points="923.8,520.8 923.8,565.9 960.5,565.9 955.3,577.9 971.1,577.9 971.1,565.9 971.1,558 971.1,520.8 		
			"/>
		<polygon class="st1" points="903.5,444.3 903.5,379.9 851.1,379.9 858.5,362.8 836,362.8 836,379.9 836,391.2 836,444.3 		"/>
		<polygon class="st1" points="913.6,362.8 913.6,408 950.3,408 945.1,419.9 960.9,419.9 960.9,408 960.9,400.1 960.9,362.8 		"/>
		<polygon class="st1" points="981.1,511.1 981.1,446.6 928.7,446.6 936.1,429.6 913.6,429.6 913.6,446.6 913.6,458 913.6,511.1 		
			"/>
		<polygon class="st1" points="991.3,429.6 991.3,474.8 1028,474.8 1022.8,486.7 1038.5,486.7 1038.5,474.8 1038.5,466.9 
			1038.5,429.6 		"/>
		<polygon class="st1" points="614.8,497.2 614.8,432.8 562.4,432.8 569.9,415.7 547.4,415.7 547.4,432.8 547.4,444.1 547.4,497.2 
					"/>
		<polygon class="st1" points="625,415.7 625,460.9 661.7,460.9 656.5,472.8 672.3,472.8 672.3,460.9 672.3,453 672.3,415.7 		"/>
		<polygon class="st1" points="692.5,564 692.5,499.5 640.1,499.5 647.5,482.5 625,482.5 625,499.5 625,510.9 625,564 		"/>
		<polygon class="st1" points="702.6,482.5 702.6,527.7 739.4,527.7 734.1,539.6 749.9,539.6 749.9,527.7 749.9,519.8 749.9,482.5 
					"/>
		<polygon class="st1" points="682.3,406 682.3,341.6 629.9,341.6 637.4,324.6 614.8,324.6 614.8,341.6 614.8,352.9 614.8,406 		"/>
		<polygon class="st1" points="692.5,324.6 692.5,369.7 729.2,369.7 724,381.6 739.7,381.6 739.7,369.7 739.7,361.8 739.7,324.6 		
			"/>
		<polygon class="st1" points="759.9,472.8 759.9,408.4 707.5,408.4 715,391.4 692.5,391.4 692.5,408.4 692.5,419.7 692.5,472.8 		
			"/>
		<polygon class="st1" points="770.1,391.4 770.1,436.5 806.8,436.5 801.6,448.4 817.4,448.4 817.4,436.5 817.4,428.6 817.4,391.4 
					"/>
		<polygon class="st1" points="745.7,298.5 745.7,234.1 693.3,234.1 700.7,217.1 678.2,217.1 678.2,234.1 678.2,245.4 678.2,298.5 
					"/>
		<polygon class="st1" points="755.8,217.1 755.8,262.2 792.6,262.2 787.3,274.1 803.1,274.1 803.1,262.2 803.1,254.3 803.1,217.1 
					"/>
		<polygon class="st1" points="823.3,365.3 823.3,300.9 770.9,300.9 778.4,283.9 755.8,283.9 755.8,300.9 755.8,312.2 755.8,365.3 
					"/>
		<polygon class="st1" points="833.5,283.9 833.5,329 870.2,329 865,340.9 880.8,340.9 880.8,329 880.8,321.1 880.8,283.9 		"/>
		<polygon class="st1" points="813.1,207.3 813.1,142.9 760.7,142.9 768.2,125.9 745.7,125.9 745.7,142.9 745.7,154.2 745.7,207.3 
					"/>
		<polygon class="st1" points="823.3,125.9 823.3,171.1 860,171.1 854.8,183 870.6,183 870.6,171.1 870.6,163.1 870.6,125.9 		"/>
		<polygon class="st1" points="890.8,274.1 890.8,209.7 838.4,209.7 845.8,192.7 823.3,192.7 823.3,209.7 823.3,221 823.3,274.1 		
			"/>
		<polygon class="st1" points="900.9,192.7 900.9,237.8 937.7,237.8 932.4,249.8 948.2,249.8 948.2,237.8 948.2,229.9 948.2,192.7 
					"/>
		<polygon class="st1" points="524.5,260.2 524.5,195.8 472.1,195.8 479.6,178.8 457.1,178.8 457.1,195.8 457.1,207.1 457.1,260.2 
					"/>
		<polygon class="st1" points="534.7,178.8 534.7,224 571.4,224 566.2,235.9 582,235.9 582,224 582,216 582,178.8 		"/>
		<polygon class="st1" points="602.2,327 602.2,262.6 549.8,262.6 557.2,245.6 534.7,245.6 534.7,262.6 534.7,273.9 534.7,327 		"/>
		<polygon class="st1" points="612.3,245.6 612.3,290.8 649,290.8 643.8,302.7 659.6,302.7 659.6,290.8 659.6,282.8 659.6,245.6 		
			"/>
		<polygon class="st1" points="592,169.1 592,104.7 539.6,104.7 547,87.6 524.5,87.6 524.5,104.7 524.5,116 524.5,169.1 		"/>
		<polygon class="st1" points="602.2,87.6 602.2,132.8 638.9,132.8 633.7,144.7 649.4,144.7 649.4,132.8 649.4,124.9 649.4,87.6 		
			"/>
		<polygon class="st1" points="669.6,235.9 669.6,171.5 617.2,171.5 624.7,154.4 602.2,154.4 602.2,171.5 602.2,182.8 602.2,235.9 
					"/>
		<polygon class="st1" points="679.8,154.4 679.8,199.6 716.5,199.6 711.3,211.5 727,211.5 727,199.6 727,191.7 727,154.4 		"/>
	</g>
</g>
</svg>
